<svg width="34" height="33" viewBox="0 0 34 33" fill="none" xmlns="http://www.w3.org/2000/svg">
<path d="M27.7752 24.6909L22.4439 23.3928L21.9903 21.6259C23.4167 20.2506 24.3936 18.3617 24.683 16.4241C25.4734 16.2073 26.0857 15.5474 26.1915 14.7196L26.5394 12.0096C26.6131 11.4377 26.4322 10.8592 26.0426 10.4256C25.8143 10.1708 25.5263 9.97844 25.2076 9.86055L25.3357 7.3091L25.8561 6.80099C26.6396 5.98933 27.2895 4.59779 25.9313 2.57885C24.8876 1.0275 23.1147 0.240234 20.6599 0.240234C19.6914 0.240234 17.462 0.240234 15.3858 1.59792C9.4575 1.71854 8.65039 4.4 8.65039 7.01516C8.65039 7.62357 8.80205 8.99345 8.90225 9.81997C8.54459 9.92972 8.22039 10.133 7.96709 10.4134C7.57049 10.8511 7.38679 11.4324 7.46057 12.011L7.80845 14.721C7.92254 15.6044 8.61138 16.2995 9.48255 16.4648C9.77061 18.3279 10.6974 20.1558 12.0417 21.5081L11.5574 23.3955L6.2262 24.6936C2.73606 25.5404 0.300781 28.5783 0.300781 32.0823C0.300781 32.4562 0.612522 32.7598 0.996604 32.7598H33.0035C33.3875 32.7598 33.6993 32.4536 33.6993 32.0796C33.6992 28.5783 31.2639 25.5404 27.7752 24.6909Z" fill="white"/>
</svg>
