<svg width="16" height="16" viewBox="0 0 16 16" fill="none" xmlns="http://www.w3.org/2000/svg">
<path d="M13.162 12.03L10.608 11.3913L10.4606 10.8013C12.2226 10.5047 13.1293 9.97667 13.1693 9.95332C13.2639 9.89798 13.3226 9.79733 13.3306 9.68798C13.338 9.57864 13.2893 9.47133 13.2033 9.40264C13.1913 9.39333 12 8.40933 12 4.99999C12 2.12465 11.3273 0.666655 9.99998 0.666655H9.80332C9.32464 0.204 8.96533 0 7.99998 0C6.74733 0 3.99999 1.25934 3.99999 4.99999C3.99999 8.40933 2.80865 9.39333 2.79999 9.39998C2.71134 9.46664 2.66134 9.57264 2.66665 9.68333C2.67265 9.79467 2.73265 9.89467 2.82799 9.95198C2.86799 9.97598 3.76599 10.5066 5.53865 10.8026L5.3913 11.3913L2.83734 12.03C1.16665 12.448 0 13.9426 0 15.6666C0 15.8506 0.149343 16 0.333343 16H15.6667C15.8507 16 16 15.8493 16 15.6653C16 13.9426 14.8333 12.448 13.162 12.03Z" fill="#00A9F4"/>
</svg>
